<svg xmlns="http://www.w3.org/2000/svg" width="512" height="512" viewBox="0 0 512 512">
  <defs>
    <linearGradient id="sky" x1="0" y1="0" x2="0" y2="1">
      <stop offset="0" stop-color="#bdeaff"/>
      <stop offset="0.55" stop-color="#8fd8ff"/>
      <stop offset="1" stop-color="#ffe6b0"/>
    </linearGradient>
    <radialGradient id="sun" cx="0.5" cy="0.5" r="0.5">
      <stop offset="0" stop-color="#ffe27a"/>
      <stop offset="1" stop-color="#ffbe2e"/>
    </radialGradient>
  </defs>
  <rect width="512" height="512" rx="112" fill="url(#sky)"/>
  <!-- mer -->
  <path d="M0 372 Q128 350 256 372 T512 372 V512 H0 Z" fill="#39b6ff" opacity="0.85"/>
  <path d="M0 400 Q128 380 256 400 T512 400 V512 H0 Z" fill="#12b3c9" opacity="0.7"/>
  <!-- sable -->
  <path d="M0 452 Q128 436 256 452 T512 452 V512 H0 Z" fill="#ffd98a"/>
  <!-- soleil -->
  <g transform="translate(256 196)">
    <circle r="92" fill="url(#sun)"/>
    <g stroke="#ffcf3f" stroke-width="16" stroke-linecap="round">
      <line x1="0" y1="-118" x2="0" y2="-150"/>
      <line x1="0" y1="118" x2="0" y2="150"/>
      <line x1="-118" y1="0" x2="-150" y2="0"/>
      <line x1="118" y1="0" x2="150" y2="0"/>
      <line x1="-84" y1="-84" x2="-106" y2="-106"/>
      <line x1="84" y1="84" x2="106" y2="106"/>
      <line x1="84" y1="-84" x2="106" y2="-106"/>
      <line x1="-84" y1="84" x2="-106" y2="106"/>
    </g>
  </g>
  <!-- palmier -->
  <g transform="translate(408 300)">
    <path d="M0 0 C6 -60 4 -110 -6 -150 C-2 -150 6 -150 10 -150 C16 -108 14 -58 12 0 Z" fill="#2e7d46"/>
    <g fill="#2ecc71">
      <path d="M4 -150 C-40 -176 -86 -172 -110 -150 C-78 -156 -40 -150 4 -138 Z"/>
      <path d="M4 -150 C48 -176 94 -172 118 -150 C86 -156 48 -150 4 -138 Z"/>
      <path d="M4 -150 C-20 -196 -18 -232 4 -256 C26 -232 28 -196 4 -150 Z"/>
    </g>
  </g>
</svg>
